<svg width="1205" height="284" viewBox="0 0 1205 284" fill="none" xmlns="http://www.w3.org/2000/svg">
<path d="M212.895 166.481C212.849 160.318 212.482 154.161 211.797 148.035C210.882 140.287 209.058 132.673 206.363 125.351C209.057 118.034 210.881 110.424 211.797 102.68C212.482 96.5546 212.849 90.3976 212.895 84.234C212.995 74.3205 212.95 55.0692 212.923 43.5852L212.908 35.6883C212.908 28.6264 211.991 23.2945 209.943 18.4112C207.92 13.5654 204.938 9.63933 201.079 6.7403C197.342 3.92602 192.763 2.03903 187.504 1.13667C183.544 0.481513 179.543 0.102556 175.53 0.00249516H175.326H175.127C171.119 0.103356 167.124 0.48147 163.168 1.13417C157.904 2.03903 153.338 3.92602 149.591 6.74279C145.731 9.63934 142.749 13.5654 140.729 18.4013C138.659 23.3344 137.851 27.7963 137.851 34.3098C137.851 34.3098 137.851 53.2046 137.851 60.8124C136.063 60.2889 134.276 59.7605 132.485 59.3467C124.268 57.4191 115.862 56.4076 107.422 56.3305H105.521C97.1038 56.409 88.7208 57.4197 80.5257 59.3442C78.7344 59.758 76.9481 60.2865 75.1618 60.8099C75.1768 48.5682 75.1419 40.053 75.0547 35.6858C75.0547 28.6688 74.113 23.0103 72.1772 18.4038C70.1492 13.5579 67.1646 9.63185 63.303 6.73531C59.566 3.92103 54.9795 2.03653 49.7153 1.13167C45.7501 0.477569 41.7444 0.09945 37.7269 0H37.5277H37.3283C33.3118 0.100322 29.3069 0.478436 25.3425 1.13167C20.0783 2.03653 15.5042 3.92103 11.7522 6.73531C7.89067 9.63185 4.90605 13.5604 2.88309 18.3963C0.969738 22.948 0.000620713 28.7635 0.000620713 35.6858V38.7294C0.000620713 48.4361 -0.0143492 72.7525 0.102744 84.229C0.148711 90.3926 0.514606 96.5496 1.19894 102.675C2.11463 110.423 3.93839 118.037 6.63256 125.359C3.93812 132.681 2.11436 140.294 1.19894 148.043C0.514593 154.168 0.148698 160.325 0.102744 166.489C-0.0292972 179.416 -0.0342617 200.45 0.0903052 214.372H0.105237C0.105237 221.351 1.05196 227 2.98275 231.594C5.0082 236.44 7.99532 240.366 11.8569 243.265C15.6088 246.079 20.1805 247.961 25.4447 248.866C29.4096 249.521 33.4154 249.899 37.433 249.997H37.6348H37.8341C41.85 249.9 45.8541 249.521 49.8174 248.866C55.0841 247.961 59.6582 246.076 63.4077 243.265C67.2693 240.366 70.2564 236.44 72.2768 231.604C74.2176 226.99 75.1593 221.334 75.1593 214.312C75.1593 214.312 75.1593 199.956 75.1593 189.91C76.9481 190.434 78.7369 190.962 80.5306 191.376C88.7469 193.301 97.1504 194.313 105.589 194.392H107.494C115.911 194.313 124.293 193.302 132.488 191.376C134.279 190.962 136.07 190.434 137.859 189.913C137.859 199.959 137.859 214.312 137.859 214.314H137.889C137.889 221.334 138.833 226.992 140.766 231.596C142.794 236.442 145.781 240.368 149.64 243.267C153.392 246.081 157.964 247.963 163.231 248.868C167.195 249.524 171.2 249.902 175.216 250H175.418H175.62C179.635 249.901 183.638 249.523 187.601 248.868C192.87 247.963 197.439 246.081 201.191 243.267C205.053 240.368 208.04 236.442 210.063 231.604C212.001 226.992 212.943 221.334 212.943 214.314V212.986C213.03 199.044 213.02 178.965 212.895 166.481ZM151.317 34.3023C151.317 29.0028 151.987 26.368 153.146 23.6011C154.249 20.9638 155.729 18.9721 157.67 17.5139C159.69 15.9983 162.301 14.9538 165.435 14.4179C168.707 13.8807 172.012 13.5668 175.326 13.4781C178.642 13.5666 181.948 13.8806 185.222 14.4179C188.356 14.9538 190.967 15.9983 192.987 17.5139C194.925 18.9721 196.405 20.9638 197.514 23.611C198.837 26.7718 199.43 30.4935 199.43 35.6783L199.445 43.6077C199.472 55.0393 199.517 74.2183 199.417 84.0895C199.38 89.7871 199.047 95.479 198.421 101.142C198.202 103.057 197.914 104.968 197.559 106.875C197.379 106.576 197.17 106.297 196.986 106.003C195.951 104.341 194.871 102.711 193.747 101.112C193.498 100.741 193.249 100.364 192.972 99.9905C191.632 98.1276 190.231 96.3129 188.769 94.5464C188.426 94.1301 188.069 93.7238 187.718 93.3C186.471 91.8377 185.187 90.4085 183.866 89.0126C183.518 88.6461 183.181 88.2648 182.83 87.9133C181.232 86.2747 179.583 84.691 177.882 83.1622C177.511 82.8281 177.135 82.5091 176.749 82.18C175.299 80.9137 173.816 79.689 172.302 78.5058C171.876 78.1717 171.46 77.8327 171.029 77.5087C169.202 76.1244 167.331 74.8008 165.418 73.5378C165.042 73.2885 164.671 73.0617 164.279 72.8199C162.635 71.7646 160.959 70.7584 159.249 69.8012C158.751 69.5245 158.273 69.2453 157.78 68.9786C155.747 67.8768 153.681 66.8324 151.574 65.8677C151.486 65.8278 151.404 65.7804 151.325 65.738V62.1934C151.305 55.9092 151.317 34.3048 151.317 34.3023ZM59.8351 226.379C58.7289 229.016 57.2466 231.008 55.3058 232.466C53.2829 233.984 50.667 235.029 47.5254 235.567C44.2487 236.105 40.9391 236.418 37.6198 236.504C34.2987 236.418 30.9874 236.104 27.7093 235.565C24.5702 235.029 21.9518 233.984 19.9288 232.466C17.9881 231.008 16.5057 229.016 15.3971 226.369C14.1838 223.48 13.5684 219.422 13.5684 214.304H6.81443L13.541 214.247C13.4165 200.395 13.4215 179.473 13.541 166.613C13.5822 160.916 13.9198 155.224 14.5525 149.561C14.7717 147.646 15.0583 145.735 15.412 143.828C15.5939 144.127 15.8057 144.406 15.99 144.705C17.0214 146.367 18.096 147.996 19.2138 149.593C19.463 149.965 19.7121 150.341 19.9861 150.71C21.3315 152.578 22.7349 154.396 24.1965 156.164C24.5353 156.575 24.8841 156.972 25.2279 157.375C26.4802 158.851 27.7724 160.291 29.1044 161.695C29.4457 162.054 29.7771 162.421 30.1234 162.777C31.7245 164.417 33.3779 166.004 35.0836 167.538C35.4474 167.865 35.831 168.176 36.1948 168.5C37.6514 169.773 39.1462 171.007 40.6792 172.202C41.0977 172.526 41.5088 172.86 41.9248 173.179C43.7518 174.565 45.627 175.895 47.5503 177.168C47.919 177.417 48.2977 177.634 48.6689 177.873C50.3198 178.93 52.0015 179.94 53.7139 180.902C54.2121 181.176 54.6905 181.458 55.1813 181.724C57.2117 182.824 59.2745 183.868 61.3822 184.83C61.4719 184.873 61.5541 184.92 61.6314 184.962C61.6314 194.268 61.6314 214.312 61.6314 214.309C61.6662 219.422 61.0508 223.482 59.8351 226.379ZM129.441 178.217C122.227 179.916 114.848 180.811 107.437 180.887H105.608C98.1774 180.813 90.7772 179.917 83.5427 178.217C79.2361 177.214 75.0133 175.881 70.9116 174.229C59.4028 169.6 48.9649 162.658 40.2432 153.833C31.4798 144.993 24.6062 134.461 20.0409 122.879C17.2799 115.901 15.4423 108.592 14.575 101.137C13.9421 95.4735 13.6045 89.7807 13.5635 84.082C13.4489 72.6379 13.4588 48.3962 13.4638 38.7144V35.6658C13.4638 30.6206 14.0966 26.4428 15.2974 23.5936C16.4011 20.9538 17.8809 18.9621 19.8242 17.5039C21.8496 15.9858 24.4655 14.9438 27.6071 14.4054C30.8839 13.8682 34.1934 13.5542 37.5127 13.4657C40.8336 13.5546 44.1447 13.8686 47.4232 14.4054C50.5623 14.9438 53.1782 15.9858 55.2012 17.5039C57.1444 18.9621 58.6268 20.9538 59.733 23.6011C60.9487 26.4893 61.5591 30.5549 61.5641 35.798C61.6538 40.3846 61.6887 49.2911 61.6662 62.2707V65.6209V70.1925C61.6662 75.1331 61.7161 80.7392 61.9154 86.5049C61.9801 88.4268 62.0624 90.3636 62.1645 92.3005C62.2309 93.5618 62.3488 94.8081 62.5183 96.0395C64.3643 109.545 72.2171 120.795 83.7121 127.134C88.036 129.506 92.7238 131.142 97.5838 131.977L98.7423 132.179L99.0238 132.129C100.61 132.378 102.209 132.544 103.812 132.628C104.495 132.655 105.2 132.7 105.92 132.762L106.493 132.812L107.063 132.762C107.783 132.7 108.488 132.655 109.166 132.63C110.764 132.563 112.357 132.414 113.939 132.187C114.722 132.346 115.474 132.568 116.232 132.782C116.989 132.997 117.749 133.176 118.474 133.44C119.311 133.749 120.093 134.141 120.885 134.517C121.565 134.836 122.268 135.123 122.913 135.487C123.661 135.921 124.368 136.434 125.078 136.925C125.676 137.339 126.304 137.72 126.867 138.172C127.542 138.72 128.138 139.348 128.758 139.954C129.256 140.452 129.809 140.909 130.278 141.449C130.863 142.113 131.354 142.85 131.872 143.568C132.276 144.124 132.727 144.648 133.088 145.233C133.586 146.024 133.955 146.881 134.366 147.726C134.655 148.317 134.996 148.87 135.245 149.471C135.618 150.46 135.935 151.47 136.195 152.495C136.349 153.038 136.568 153.549 136.693 154.105C137.057 155.737 137.284 157.398 137.371 159.068C137.508 161.643 137.597 164.23 137.665 166.795C137.682 167.386 137.697 167.977 137.712 168.563C137.767 171.008 137.804 173.429 137.821 175.732C137.82 175.755 137.82 175.778 137.821 175.802C135.071 176.751 132.274 177.557 129.441 178.217ZM199.43 214.237V216.079C199.3 220.364 198.682 223.819 197.624 226.369C196.52 229.006 195.038 230.998 193.097 232.456C191.074 233.974 188.455 235.019 185.316 235.557C182.039 236.095 178.728 236.408 175.408 236.494C172.087 236.408 168.776 236.094 165.498 235.555C162.359 235.019 159.743 233.974 157.72 232.459C155.777 230.998 154.294 229.006 153.186 226.359C151.972 223.472 151.357 219.412 151.357 214.294H151.327C151.327 214.102 151.327 194.352 151.327 185.06V180.485C151.315 173.887 151.242 166.097 150.829 158.378C149.762 138.169 135.529 122.233 115.412 118.706L114.253 118.499L113.967 118.551C112.378 118.301 110.777 118.135 109.171 118.053C108.488 118.025 107.786 117.983 107.076 117.921L106.5 117.873L105.925 117.921C105.21 117.983 104.505 118.025 103.827 118.053C102.229 118.119 100.635 118.267 99.0513 118.496C98.269 118.334 97.5191 118.113 96.7642 117.901C96.0093 117.689 95.2445 117.507 94.522 117.243C93.6799 116.934 92.8951 116.537 92.0979 116.163C91.4228 115.844 90.7252 115.56 90.0849 115.196C89.3151 114.76 88.615 114.241 87.8975 113.743C87.3046 113.334 86.6842 112.958 86.1312 112.496C85.4411 111.941 84.8357 111.302 84.2054 110.687C83.7071 110.201 83.1789 109.75 82.7106 109.229C82.1151 108.553 81.6119 107.798 81.0812 107.065C80.6901 106.521 80.2516 106.015 79.8978 105.442C79.4186 104.615 78.9813 103.763 78.5874 102.892C78.3109 102.324 77.982 101.79 77.7403 101.202C77.3609 100.193 77.0374 99.1634 76.7712 98.1185C76.6242 97.595 76.4125 97.1014 76.2954 96.5655C75.9317 94.9329 75.7042 93.2729 75.6152 91.6025C75.4782 89.025 75.391 86.4401 75.3213 83.8751L75.2764 82.0654C75.2216 79.6424 75.1842 77.2444 75.1643 74.9611V74.8614C77.9135 73.9189 80.7091 73.1177 83.5402 72.4609C90.7534 70.7639 98.1317 69.8686 105.541 69.7912H107.372C114.803 69.8655 122.204 70.7609 129.438 72.4609C133.744 73.4654 137.967 74.7988 142.069 76.4493C143.514 77.0292 144.942 77.6458 146.352 78.2989C167.651 88.2176 184.329 105.943 192.94 127.814C195.697 134.792 197.533 142.099 198.403 149.551C199.03 155.215 199.363 160.908 199.4 166.606C199.547 179.436 199.547 200.357 199.43 214.247V214.237Z" fill="#0B1D3A"/>
<path fill-rule="evenodd" clip-rule="evenodd" d="M280 127V232H301.5H323V188.5V145H368.021H413.041L412.771 188.5L412.5 232.001L434.25 232H456V204V176H467.311H478.622L479.904 181.25C481.709 188.642 488.169 201.469 493.498 208.242C515.973 236.805 565.126 244.602 598.665 224.923C601.874 223.04 608.332 217.675 613.016 213C619.903 206.126 622.457 202.683 626.364 195L631.196 185.5L612.222 185.229L593.249 184.958L586.375 191.82C576.759 201.419 571.425 203.464 556 203.467C545.276 203.469 544.108 203.271 538.692 200.544C528.043 195.181 520.387 185.834 517.359 174.5C514.833 165.041 508.541 166 573.13 166H630.26L629.727 149.75C629.32 137.353 628.698 131.84 627.103 126.5C619.748 101.874 603.587 86.024 578.5 78.833C571.755 76.9 568.146 76.54 555.5 76.54C537.953 76.54 529.482 78.435 517 85.15C496.785 96.027 481.964 117.033 478.477 139.75L477.824 144H466.912H456V83V22H434.511H413.021L412.761 64.75L412.5 107.5L367.75 107.76L323 108.021V65.01V22H301.5H280V127ZM651 127V232H671.25H691.5L691.241 127L690.982 22H670.991H651V127ZM960.409 75.981C933.266 79.827 908.98 99.154 898.673 125.111C890.39 145.971 891.546 174.888 901.478 195.256C913.994 220.924 939.418 235.279 972.5 235.357C991.704 235.403 1005.78 231.04 1020.64 220.439C1030.56 213.356 1042.3 197.661 1045.45 187.25L1046.14 185L1027.32 185.013L1008.5 185.025L1003.74 190.456C998.018 196.978 989.342 201.588 979.819 203.166C956.082 207.099 936.382 193.387 932.532 170.25L931.824 166H988.53H1045.23L1044.72 149.75C1044.13 131.315 1042.96 125.863 1036.8 113.037C1033.51 106.175 1031.1 102.939 1024.08 95.919C1010.62 82.463 996.468 76.464 976 75.544C970.775 75.31 963.759 75.506 960.409 75.981ZM1141.47 75.99C1128.23 77.835 1116.04 83.742 1108.75 91.84L1105 96.006V87.003V78H1085.5H1066V155V232H1085.45H1104.9L1105.23 182.25C1105.6 126.268 1105.48 127.282 1113.2 118.514C1119.41 111.451 1123.68 109.677 1135.5 109.231C1144.9 108.876 1145.83 109.024 1150.95 111.677C1153.95 113.23 1157.64 116.075 1159.16 118C1164.67 124.996 1165 128.663 1165 182.71V232H1184.57H1204.15L1203.76 176.25C1203.41 127.208 1203.16 119.782 1201.64 114.535C1196.01 95.074 1184.2 82.51 1166.96 77.633C1159.87 75.63 1149.06 74.933 1141.47 75.99ZM786 77.994C775.872 80.702 767.223 85.224 761.636 90.732L757 95.302V86.651V78H737.25H717.5V181V284H737.25H757V249.297V214.594L760.75 218.194C766.377 223.596 774.92 228.636 783.672 231.718C790.897 234.262 792.656 234.473 806.5 234.452C820.165 234.431 822.231 234.185 829.715 231.682C834.406 230.113 841.123 226.799 845.376 223.954C869.214 208.011 880.892 179.852 877.91 145.508C875.134 113.538 856.578 88.119 829.631 79.373C818.224 75.67 797.176 75.005 786 77.994ZM985.712 108.124C996.219 111.981 1007 125.865 1007 135.538V138H970.421H933.841L934.544 134.75C937.144 122.724 947.894 111.323 960.286 107.451C967.047 105.338 978.982 105.654 985.712 108.124ZM570.048 108.926C576.549 111.396 581.21 114.979 584.817 120.28C587.94 124.869 591 132.984 591 136.678V139H554.5H518L518.01 136.75C518.023 133.702 522.353 124.605 525.955 120.057C529.773 115.236 535.801 111.108 542.3 108.862C549.604 106.338 563.321 106.37 570.048 108.926ZM814.175 112.197C828.331 118.741 836.654 131.88 838.438 150.5C840.024 167.057 835.278 180.96 824.806 190.437C816.734 197.742 810.372 200.178 797.816 200.77C782.524 201.492 773.069 197.354 764.109 186.019C758.02 178.315 755.801 171.422 755.242 158.473C754.502 141.345 757.636 130.69 766.121 121.485C774.739 112.135 783.369 108.888 798.5 109.301C806.818 109.528 809.455 110.015 814.175 112.197Z" fill="#0B1D3A"/>
</svg>
